<?xml version="1.0"?>
<svg xmlns="http://www.w3.org/2000/svg" width="512" height="512" viewBox="0 0 128 128"><g><path d="M96.2,67.136,83.378,61.772A10.754,10.754,0,0,0,73.82,55.92H71.75v-3.5A24.528,24.528,0,0,0,88.321,31.891q2.721,1.727,5.592,3.926a1.75,1.75,0,0,0,1.067.363,1.772,1.772,0,0,0,.583-.1,1.753,1.753,0,0,0,1.119-1.242L99.121,24.7A1.748,1.748,0,0,0,98.1,22.68a45.947,45.947,0,0,0-11.552-2.956,24.469,24.469,0,0,0-45.1,0A45.946,45.946,0,0,0,29.9,22.68,1.748,1.748,0,0,0,28.879,24.7l2.439,10.14a1.753,1.753,0,0,0,1.119,1.242,1.772,1.772,0,0,0,.583.1,1.75,1.75,0,0,0,1.067-.363q2.864-2.2,5.592-3.926A24.528,24.528,0,0,0,56.25,52.425v3.5H54.18a10.754,10.754,0,0,0-9.558,5.852L31.8,67.136a6.25,6.25,0,1,0,4.832,11.528L43.43,75.82v8.52a49.791,49.791,0,0,1-.309,5.492c-1.142,10.045-2.028,16.69-2.125,17.415a1.75,1.75,0,0,0,1.721,1.983c.534,0,1,.031,1.418.074l-.91,6.881a6.249,6.249,0,1,0,12.39,1.634l.909-6.879a16.385,16.385,0,0,0,2.729-.821,13.088,13.088,0,0,1,9.48,0,16.215,16.215,0,0,0,2.744.823l.908,6.875a6.249,6.249,0,1,0,12.39-1.635l-.909-6.876c.422-.043.886-.071,1.417-.075A1.75,1.75,0,0,0,87,107.247c-.1-.725-.983-7.37-2.125-17.411a49.918,49.918,0,0,1-.309-5.5V75.82l6.793,2.844A6.25,6.25,0,1,0,96.2,67.136Zm-.837-41.757L93.9,31.441c-1.868-1.35-3.7-2.545-5.47-3.59a24.373,24.373,0,0,0-.657-4.421A44.856,44.856,0,0,1,95.358,25.379ZM64,8.25A21,21,0,0,1,84.87,27.242c-4.261-.6-14.333-2.568-19.593-8.188a1.8,1.8,0,0,0-2.554,0c-5.26,5.62-15.332,7.588-19.593,8.188A21,21,0,0,1,64,8.25ZM32.642,25.379a44.856,44.856,0,0,1,7.586-1.949,24.373,24.373,0,0,0-.657,4.421c-1.773,1.045-3.6,2.24-5.47,3.59Zm10.467,5.4c4.065-.52,14.422-2.358,20.891-8.1,6.469,5.738,16.826,7.576,20.891,8.1a20.948,20.948,0,0,1-41.782,0ZM64,53.69a24.5,24.5,0,0,0,4.25-.377v4l0,.079a1.565,1.565,0,0,0-.02.181,4.24,4.24,0,0,1-8.466,0,1.019,1.019,0,0,0-.016-.146V53.313A24.508,24.508,0,0,0,64,53.69ZM35.283,75.436a2.75,2.75,0,0,1-2.127-5.072l10.305-4.312c-.012.206-.031.409-.031.618v5.355ZM51.1,119.184a2.752,2.752,0,0,1-4.4-2.544l.852-6.44a14.675,14.675,0,0,0,5.408,1.021l-.81,6.143A2.725,2.725,0,0,1,51.1,119.184Zm12.9-13.454a14.939,14.939,0,0,0-5.967,1.112,11.35,11.35,0,0,1-4.723.888,11.488,11.488,0,0,1-4.747-.889c-.563-.211-1.17-.429-1.877-.619a1.826,1.826,0,0,0-.357-.087h0a13.274,13.274,0,0,0-1.609-.29c.356-2.751,1.055-8.285,1.89-15.622a53.747,53.747,0,0,0,.33-5.883V66.67a7.208,7.208,0,0,1,.58-2.84c.007-.016.016-.03.022-.045A7.257,7.257,0,0,1,54.18,59.42h2.372a7.738,7.738,0,0,0,14.9,0H73.82a7.258,7.258,0,0,1,6.648,4.364c.006.017.015.031.022.047a7.2,7.2,0,0,1,.58,2.839V84.34a53.907,53.907,0,0,0,.33,5.888c.835,7.333,1.534,12.865,1.89,15.616a13.45,13.45,0,0,0-1.859.35c-.032.01-.067.013-.1.024a20.01,20.01,0,0,0-1.909.628,13.06,13.06,0,0,1-9.462-.006A14.96,14.96,0,0,0,63.99,105.73Zm14.948,14a2.741,2.741,0,0,1-3.083-2.365l-.81-6.14a14.637,14.637,0,0,0,5.407-1.024l.853,6.438A2.756,2.756,0,0,1,78.938,119.726ZM96.315,73.963a2.754,2.754,0,0,1-3.6,1.473L84.57,72.025V66.67c0-.209-.019-.412-.031-.618l10.3,4.312A2.752,2.752,0,0,1,96.315,73.963Z"/><path d="M70.794,42.188a1.751,1.751,0,0,0-3.356-1c-.492,1.655-2.392,2.1-3.438,2.1s-2.946-.441-3.438-2.1a1.751,1.751,0,0,0-3.356,1c.945,3.176,4.094,4.6,6.794,4.6S69.849,45.364,70.794,42.188Z"/><path d="M69.784,34.4a1.747,1.747,0,0,0,2.388-.65,1.157,1.157,0,0,1,2.075,0,1.75,1.75,0,1,0,3.039-1.735,4.653,4.653,0,0,0-8.153,0A1.748,1.748,0,0,0,69.784,34.4Z"/><path d="M58.216,34.4a1.748,1.748,0,0,0,.651-2.387,4.653,4.653,0,0,0-8.153,0,1.75,1.75,0,1,0,3.039,1.735,1.157,1.157,0,0,1,2.075,0,1.747,1.747,0,0,0,2.388.65Z"/></g></svg>
