<svg height="511pt" viewBox="-80 0 511 511.99936" width="511pt" xmlns="http://www.w3.org/2000/svg"><path d="m176.199219 0c-96.882813 0-175.699219 78.820312-175.699219 175.699219 0 53.503906 57.566406 172.570312 157.941406 326.652343 8.398438 12.863282 27.113282 12.867188 35.515625 0 100.375-154.082031 157.941407-273.148437 157.941407-326.652343 0-96.878907-78.820313-175.699219-175.699219-175.699219zm101.113281 93.609375-62.511719 204.640625c-2.484375 8.097656-11.058593 12.566406-19.015625 10.117188-72.316406-22.007813-129.980468-79.160157-152.253906-152.246094-2.449219-8.042969 2.082031-16.554688 10.125-19.015625l204.628906-62.511719c11.648438-3.582031 22.585938 7.375 19.027344 19.015625zm0 0"/><path d="m190.269531 274.222656 49.53125-162.117187-162.125 49.535156c20.152344 51.664063 60.917969 92.429687 112.59375 112.582031zm-16.203125-119.398437 4.335938-4.339844c5.941406-5.941406 15.59375-5.941406 21.546875 0 5.953125 5.953125 5.953125 15.605469 0 21.554687l-4.335938 4.328126c-5.945312 5.941406-15.570312 5.976562-21.546875 0-5.953125-5.941407-5.953125-15.589844 0-21.542969zm-14.761718 53.257812 4.328124-4.324219c5.953126-5.957031 15.605469-5.957031 21.558594 0 5.949219 5.941407 5.949219 15.589844 0 21.542969l-4.339844 4.339844c-5.953124 5.953125-15.625 5.941406-21.542968 0-5.957032-5.953125-5.957032-15.605469-.003906-21.558594zm-36.792969-38.023437c5.953125-5.953125 15.59375-5.953125 21.546875 0s5.953125 15.59375 0 21.546875l-4.339844 4.339843c-5.949219 5.949219-15.601562 5.941407-21.542969 0-5.953125-5.953124-5.953125-15.59375 0-21.546874zm0 0"/></svg>