<svg height="512" viewBox="0 0 512 512" width="512" xmlns="http://www.w3.org/2000/svg"><path d="m288 16h-192a16 16 0 0 0 -16 16v160a112.018 112.018 0 0 0 96 110.857v145.143a32 32 0 0 1 -32 32h-24a8 8 0 0 0 -8 8v8h160v-8a8 8 0 0 0 -8-8h-24a32 32 0 0 1 -32-32v-145.143a112.018 112.018 0 0 0 96-110.857v-160a16 16 0 0 0 -16-16z" fill="#d7e6f0"/><path d="m184 496h88v-8h-80a8 8 0 0 0 -8 8z" fill="#a5c3dc"/><path d="m288 16h-96v176a56 56 0 0 1 -56 56 56 56 0 0 1 -56-56 112.018 112.018 0 0 0 96 110.857v17.143a16 16 0 0 1 16 16v144h48a32 32 0 0 1 -32-32v-145.143a112.018 112.018 0 0 0 96-110.857v-160a16 16 0 0 0 -16-16z" fill="#a5c3dc"/><path d="m192 288a96.108 96.108 0 0 1 -96-96v-128h192v128a96.108 96.108 0 0 1 -96 96z" fill="#aa2823"/><path d="m109.758 241.472a55.736 55.736 0 0 0 26.242 6.528 56 56 0 0 0 56-56v-128h-96v128a95.419 95.419 0 0 0 13.758 49.472z" fill="#e13741"/><rect fill="#fff" height="168" rx="8" width="16" x="112" y="32"/><path d="m203.147 340.853a120 120 0 1 0 -35.147-84.853 119.215 119.215 0 0 0 35.147 84.853z" fill="#fff"/><path d="m202.667 273.358v29.284a16 16 0 0 0 8.155 13.946l26.667 15a16 16 0 0 0 15.688 0l26.667-15a16 16 0 0 0 8.156-13.946v-29.284a16 16 0 0 0 -8.156-13.946l-26.666-15a16 16 0 0 0 -15.689 0l-26.667 15a16 16 0 0 0 -8.155 13.946z" fill="#d7e6f0"/><path d="m204.878 265.244a15.987 15.987 0 0 0 -2.211 8.114v29.285a16 16 0 0 0 8.155 13.945l26.667 15a15.988 15.988 0 0 0 7.844 2.054v-45.642z" fill="#a5c3dc"/><path d="m288 273.356a15.992 15.992 0 0 0 -2.211-8.112l-40.456 22.756v45.642a15.992 15.992 0 0 0 7.845-2.054l26.666-15a16 16 0 0 0 8.156-13.946z" fill="#87a5be"/><path d="m245.333 201.358v29.284a16 16 0 0 0 8.156 13.946l26.667 15a16 16 0 0 0 15.688 0l26.667-15a16 16 0 0 0 8.156-13.946v-29.284a16 16 0 0 0 -8.156-13.946l-26.667-15a16 16 0 0 0 -15.688 0l-26.667 15a16 16 0 0 0 -8.156 13.946z" fill="#d7e6f0"/><path d="m247.545 193.244a15.988 15.988 0 0 0 -2.212 8.114v29.285a16 16 0 0 0 8.156 13.945l26.667 15a15.988 15.988 0 0 0 7.844 2.054v-45.642z" fill="#a5c3dc"/><path d="m330.667 201.356a15.993 15.993 0 0 0 -2.212-8.112l-40.455 22.756v45.642a15.988 15.988 0 0 0 7.844-2.054l26.667-15a16 16 0 0 0 8.156-13.946z" fill="#87a5be"/><path d="m288 273.358v29.284a16 16 0 0 0 8.156 13.946l26.666 15a16 16 0 0 0 15.689 0l26.666-15a16 16 0 0 0 8.156-13.946v-29.284a16 16 0 0 0 -8.155-13.946l-26.667-15a16 16 0 0 0 -15.689 0l-26.666 15a16 16 0 0 0 -8.156 13.946z" fill="#d7e6f0"/><path d="m290.211 265.244a16 16 0 0 0 -2.211 8.114v29.285a16 16 0 0 0 8.156 13.945l26.666 15a15.992 15.992 0 0 0 7.845 2.054v-45.642z" fill="#a5c3dc"/><path d="m373.333 273.356a15.982 15.982 0 0 0 -2.211-8.112l-40.455 22.756v45.642a15.988 15.988 0 0 0 7.844-2.054l26.666-15a16 16 0 0 0 8.156-13.946z" fill="#87a5be"/><rect fill="#a5c3dc" height="10.667" rx="5.333" width="10.667" x="301.333" y="221.333"/><rect fill="#a5c3dc" height="10.667" rx="5.333" width="10.667" x="349.333" y="304"/><rect fill="#a5c3dc" height="10.667" rx="5.333" width="10.667" x="256" y="288"/><g fill="#d7e6f0"><rect height="10.667" rx="5.333" width="10.667" x="266.667" y="234.667"/><rect height="10.667" rx="5.333" width="10.667" x="296" y="290.667"/><rect height="10.667" rx="5.333" width="10.667" x="208" y="285.333"/></g><rect fill="#a5c3dc" height="10.667" rx="5.333" width="10.667" x="280" y="181.333"/><rect fill="#a5c3dc" height="10.667" rx="5.333" width="10.667" x="224" y="258.667"/><rect fill="#a5c3dc" height="10.667" rx="5.333" width="10.667" x="338.667" y="258.667"/><path d="m432 256a144 144 0 1 0 -176 140.426v27.574h-10.343a5.657 5.657 0 0 0 -4 9.657l32.686 32.686a19.314 19.314 0 0 0 27.314 0l32.686-32.686a5.657 5.657 0 0 0 -4-9.657h-10.343v-27.574a144.051 144.051 0 0 0 112-140.426zm-144-120a120 120 0 1 1 -84.853 35.147 119.215 119.215 0 0 1 84.853-35.147z" fill="#73a041"/></svg>