<svg id="Layer_1" enable-background="new 0 0 512.012 512.012" height="512" viewBox="0 0 512.012 512.012" width="512" xmlns="http://www.w3.org/2000/svg"><g><g clip-rule="evenodd" fill-rule="evenodd"><path d="m438.625 45.104 28.288 28.288.045.045c3.893 3.844 10.223 3.829 14.097-.045l18.041-18.041c3.889-3.889 3.889-10.253 0-14.142l-28.288-28.288c-3.889-3.889-10.253-3.889-14.142 0l-18.04 18.041c-3.874 3.874-3.889 10.204-.045 14.097z" fill="#c68a65"/><path d="m439.144 102.192 28.284-28.284-.471-.47-28.333-28.333c-.015-.015-.03-.03-.045-.045l-.47-.47-28.284 28.284z" fill="#ddb9a3"/><path d="m375.876 164.43-28.288-28.288c-3.888-3.888-10.254-3.888-14.142 0l-18.739 18.739c-3.161 3.161-3.753 7.959-1.774 11.733-33.053 31.371-58.52 48.015-79.98 58.609v53.842h53.842c10.595-21.46 27.239-46.928 58.61-79.98 3.773 1.98 8.571 1.388 11.733-1.774l18.739-18.739c3.888-3.89 3.887-10.254-.001-14.142z" fill="#ffc144"/><path d="m286.795 279.064h-53.842v-53.841c-41.057 20.27-67.444 18.402-104.212 55.17l-112.605 112.605c-8.166 8.166-8.167 21.531 0 29.698l36.592 36.593 36.593 36.592c8.167 8.167 21.532 8.167 29.698 0l112.605-112.605c36.768-36.767 34.9-63.155 55.171-104.212zm-98.103 44.261c13.181 13.18 2.377 45.353-24.13 71.86s-58.679 37.31-71.86 24.13c-13.18-13.18-2.377-45.353 24.13-71.86 26.508-26.507 58.68-37.31 71.86-24.13z" fill="#6d91ac"/><ellipse cx="140.698" cy="371.32" fill="#ffc144" rx="67.875" ry="33.75" transform="matrix(.707 -.707 .707 .707 -221.353 208.245)"/></g><g><path d="m354.66 129.071c-3.77-3.771-8.792-5.847-14.143-5.847s-10.373 2.076-14.143 5.846l-18.737 18.738c-4.209 4.208-6.226 9.882-5.823 15.528-49.655 46.134-80.902 57.381-108.563 67.338-23.249 8.369-45.208 16.273-71.582 42.646l-24.485 24.485c-3.905 3.905-3.905 10.237 0 14.143 3.905 3.904 10.237 3.904 14.143 0l24.485-24.485c23.211-23.212 41.305-29.725 64.213-37.972 7.146-2.572 14.726-5.302 22.928-8.751v38.323c0 5.522 4.477 10 10 10h38.323c-3.449 8.201-6.179 15.782-8.751 22.928-8.247 22.907-14.76 41.002-37.971 64.213l-112.606 112.606c-2.061 2.062-4.823 3.196-7.778 3.197-2.955 0-5.717-1.136-7.778-3.197l-73.185-73.185c-4.289-4.289-4.289-11.267 0-15.556l24.48-24.48c3.905-3.905 3.905-10.237 0-14.143-3.905-3.904-10.237-3.904-14.142 0l-24.48 24.48c-12.086 12.087-12.086 31.754 0 43.841l73.185 73.184c5.838 5.84 13.624 9.056 21.921 9.056 8.297-.001 16.082-3.216 21.92-9.055l112.605-112.604c26.373-26.373 34.277-48.333 42.646-71.582 9.958-27.66 21.204-58.908 67.337-108.563 5.638.396 11.319-1.613 15.528-5.821l18.738-18.739c7.798-7.797 7.798-20.485 0-28.284zm-4.611 61.158c-3.961-2.081-8.819-1.273-11.898 1.972-29.423 31.001-46.385 55.894-57.44 76.864h-37.758v-37.758c20.97-11.054 45.864-28.016 76.865-57.44 3.244-3.078 4.038-7.954 1.961-11.915l18.738-18.738 28.288 28.287z"/><path d="m506.166 34.139-28.287-28.287c-3.77-3.771-8.792-5.847-14.143-5.847s-10.373 2.076-14.142 5.846l-18.042 18.041c-5.005 5.005-6.779 12.021-5.359 18.47l-23.44 23.44c-1.875 1.876-2.929 4.419-2.929 7.071s1.054 5.195 2.929 7.071l7.588 7.588-19.638 19.638c-3.905 3.905-3.905 10.237 0 14.143 1.953 1.952 4.512 2.929 7.071 2.929s5.119-.977 7.071-2.929l19.638-19.638 7.588 7.588c1.953 1.952 4.512 2.929 7.071 2.929s5.119-.977 7.071-2.929l23.44-23.44c1.425.314 2.875.489 4.328.489 5.121 0 10.243-1.949 14.142-5.848l18.04-18.041c3.77-3.77 5.846-8.792 5.846-14.143.003-5.349-2.073-10.372-5.843-14.141zm-67.022 53.91-15.177-15.176 14.142-14.142 15.177 15.176zm34.84-21.728-28.289-28.288 18.04-18.04 28.288 28.287z"/><path d="m355.615 97.173c5.523 0 10-4.478 10-10v-27.534c0-5.522-4.477-10-10-10s-10 4.478-10 10v27.534c0 5.522 4.477 10 10 10z"/><path d="m452.379 146.403h-27.535c-5.523 0-10 4.478-10 10s4.477 10 10 10h27.535c5.523 0 10-4.478 10-10s-4.477-10-10-10z"/><path d="m85.632 426.386c5.681 5.682 13.43 8.562 22.617 8.562 5.689 0 11.931-1.105 18.57-3.335 15.008-5.04 30.924-15.466 44.815-29.356 13.891-13.892 24.316-29.807 29.356-44.815 5.83-17.36 3.973-31.987-5.227-41.187-9.2-9.201-23.826-11.058-41.187-5.227-15.008 5.04-30.924 15.466-44.815 29.356-31.391 31.393-41.765 68.365-24.129 86.002zm38.272-71.859c11.579-11.579 25.079-20.522 37.039-24.539 4.55-1.528 8.693-2.289 12.155-2.289 3.767 0 6.727.901 8.523 2.698 3.446 3.446 3.599 11.176.409 20.678-4.016 11.96-12.96 25.461-24.539 37.039-11.578 11.579-25.079 20.522-37.039 24.539-9.5 3.19-17.231 3.039-20.678-.409-6.847-6.848-.851-32.736 24.13-57.717z"/><path d="m72.433 346.7c2.559 0 5.118-.977 7.071-2.929l.005-.005c3.905-3.905 3.903-10.234-.002-14.14-3.905-3.904-10.238-3.904-14.144.002-3.905 3.905-3.905 10.237 0 14.143 1.952 1.953 4.511 2.929 7.07 2.929z"/></g></g></svg>